<svg xmlns="http://www.w3.org/2000/svg" xmlns:xlink="http://www.w3.org/1999/xlink" xmlns:inkscape="http://www.inkscape.org/namespaces/inkscape" version="1.1" width="4096" height="4096" viewBox="0 0 4096 4096">
<defs>
<clipPath id="clip_0">
<path transform="matrix(1,0,0,-1,0,4096)" d="M0 4096H4096V0H0Z"/>
</clipPath>
</defs>
<g inkscape:groupmode="layer" inkscape:label="Layer 1">
<g clip-path="url(#clip_0)">
<path transform="matrix(1,0,0,-1,2129.1856,2435.7559)" d="M0 0C-93.038-77.706-237.478-119.167-433.478-124.538-452.336-125.055-467.813-109.643-467.813-90.777V861.332C-467.813 879.976-452.699 895.09-434.055 895.09H-426.357C-232.157 895.09-87.888 853.082 6.264 769.248 46.026 733.752 77.473 690.447 100.399 639.229 108.311 621.554 129.246 613.948 146.492 622.754L914.162 1014.745C931.608 1023.653 937.958 1045.565 927.712 1062.26L927.519 1062.575C805.729 1260.46 630.875 1419.284 403.141 1539.417 295.169 1595.797 154.955 1637.438-17.135 1664.338-189.226 1691.424-397.061 1704.874-640.456 1704.874H-1244.391C-1263.035 1704.874-1278.149 1689.76-1278.149 1671.115V-895.604C-1278.149-914.248-1263.035-929.362-1244.391-929.362H-710.656C-422.856-929.362-193.096-916.096-21.558-889.749 149.979-863.401 291.485-821.391 403.141-763.72 632.165-642.667 807.388-483.659 928.44-287.063 940.545-267.481 952.038-247.594 962.822-227.45 972.347-209.658 964.774-187.549 946.113-179.863L143.698 150.613C126.957 157.508 107.773 149.907 100.297 133.418 76.162 80.191 42.693 35.681 0 0" fill="#231f20"/>
<path transform="matrix(1,0,0,-1,2241.3939,2272.1409)" d="M0 0C.184 0 .369 0 .553 .183 .553 0 .553 0 .369-.184Z" fill="#ffffff"/>
<path transform="matrix(1,0,0,-1,2242.8682,1829.7554)" d="M0 0C0 0 .184-.183 .184-.368 0-.368-.185-.183-.369-.183Z" fill="#ffffff"/>
<path transform="matrix(1,0,0,-1,2385.7532,2050.6124)" d="M0 0C0-109.628-39.43-210.045-100.969-257.767L-106.865-265.69-112.577-265.874C-134.687-280.245-159.009-287.8-183.699-287.8-251.686-287.8-313.595-230.497-345.286-138.004-359.843-95.81-367.396-48.089-367.396 0-367.396 34.272-363.527 68.173-355.973 100.786-329.256 214.284-261.636 287.432-183.699 287.432-158.64 287.432-133.951 279.694-111.471 264.77H-110.735L-103.365 259.426C-39.614 211.705 0 112.209 0 0" fill="#231f20"/>
<path transform="matrix(1,0,0,-1,3244.9586,2039.4319)" d="M0 0-.553-33.718C-.553-62.277-24.321-85.862-53.618-85.862L-685.783-76.833C-700.154-76.465-713.42-70.753-723.185-60.435-732.766-50.301-738.109-36.85-737.742-22.848L-737.373 10.318C-737.188 24.689-731.292 37.956-721.158 47.72-711.025 57.67-698.127 62.645-683.387 62.645L-52.143 53.617C-37.772 53.248-24.506 47.536-14.741 37.218-4.975 27.084 .183 13.819 0 0" fill="#231f20"/>
<path transform="matrix(1,0,0,-1,3172.3636,1738.7354)" d="M0 0-.184-.183-612.082-156.981C-617.241-158.271-622.585-158.824-627.743-158.824-638.799-158.824-649.485-155.875-659.25-150.164-673.621-141.689-683.572-128.053-687.809-112.024L-695.916-79.595C-704.392-46.615-684.493-12.713-651.512-4.053L-39.43 152.929C-23.585 156.982-6.817 154.587 7.369 146.295 21.741 137.821 31.875 124.186 36.113 108.155L44.404 75.359C53.064 42.562 33.165 8.66 0 0" fill="#231f20"/>
<path transform="matrix(1,0,0,-1,3207.9239,2413.0933)" d="M0 0-8.476-32.613C-14.74-56.565-36.114-72.411-59.697-72.411-64.12-72.411-68.542-71.858-72.964-70.753L-684.677 86.229C-712.867 93.6-729.819 122.527-722.633 150.533L-714.341 183.146C-706.971 211.335-678.043 228.472-650.038 221.286L-38.14 64.303C-9.95 57.117 7.002 28.191 0 0" fill="#231f20"/>
</g>
</g>
</svg>
